<svg width="1920" height="1080" viewBox="0 0 1920 1080" fill="none" xmlns="http://www.w3.org/2000/svg">
<rect x="0.5" y="1020.5" width="59" height="59" stroke="white"/>
<rect x="0.5" y="960.5" width="59" height="59" stroke="white"/>
<rect x="0.5" y="900.5" width="59" height="59" stroke="white"/>
<rect x="0.5" y="840.5" width="59" height="59" stroke="white"/>
<rect x="0.5" y="780.5" width="59" height="59" stroke="white"/>
<rect x="0.5" y="720.5" width="59" height="59" stroke="white"/>
<rect x="0.5" y="660.5" width="59" height="59" stroke="white"/>
<rect x="0.5" y="600.5" width="59" height="59" fill="white" stroke="white"/>
<rect x="0.5" y="540.5" width="59" height="59" stroke="white"/>
<rect x="0.5" y="480.5" width="59" height="59" stroke="white"/>
<rect x="0.5" y="420.5" width="59" height="59" stroke="white"/>
<rect x="0.5" y="360.5" width="59" height="59" stroke="white"/>
<rect x="0.5" y="300.5" width="59" height="59" stroke="white"/>
<rect x="0.5" y="240.5" width="59" height="59" stroke="white"/>
<rect x="0.5" y="180.5" width="59" height="59" stroke="white"/>
<rect x="0.5" y="120.5" width="59" height="59" stroke="white"/>
<rect x="0.5" y="60.5" width="59" height="59" stroke="white"/>
<rect x="0.5" y="0.5" width="59" height="59" fill="white" stroke="white"/>
<rect x="60.5" y="1020.5" width="59" height="59" stroke="white"/>
<rect x="60.5" y="960.5" width="59" height="59" fill="white" stroke="white"/>
<rect x="60.5" y="900.5" width="59" height="59" fill="white" stroke="white"/>
<rect x="60.5" y="840.5" width="59" height="59" fill="white" stroke="white"/>
<rect x="60.5" y="780.5" width="59" height="59" stroke="white"/>
<rect x="60.5" y="720.5" width="59" height="59" stroke="white"/>
<rect x="60.5" y="660.5" width="59" height="59" stroke="white"/>
<rect x="60.5" y="600.5" width="59" height="59" fill="white" stroke="white"/>
<rect x="60.5" y="540.5" width="59" height="59" fill="white" stroke="white"/>
<rect x="60.5" y="480.5" width="59" height="59" stroke="white"/>
<rect x="60.5" y="420.5" width="59" height="59" stroke="white"/>
<rect x="60.5" y="360.5" width="59" height="59" stroke="white"/>
<rect x="60.5" y="300.5" width="59" height="59" stroke="white"/>
<rect x="60.5" y="240.5" width="59" height="59" fill="white" stroke="white"/>
<rect x="60.5" y="180.5" width="59" height="59" stroke="white"/>
<rect x="60.5" y="120.5" width="59" height="59" stroke="white"/>
<rect x="60.5" y="60.5" width="59" height="59" stroke="white"/>
<rect x="60.5" y="0.5" width="59" height="59" stroke="white"/>
<rect x="120.5" y="1020.5" width="59" height="59" stroke="white"/>
<rect x="120.5" y="960.5" width="59" height="59" stroke="white"/>
<rect x="120.5" y="900.5" width="59" height="59" stroke="white"/>
<rect x="120.5" y="840.5" width="59" height="59" stroke="white"/>
<rect x="120.5" y="780.5" width="59" height="59" stroke="white"/>
<rect x="120.5" y="720.5" width="59" height="59" stroke="white"/>
<rect x="120.5" y="660.5" width="59" height="59" stroke="white"/>
<rect x="120.5" y="600.5" width="59" height="59" stroke="white"/>
<rect x="120.5" y="540.5" width="59" height="59" stroke="white"/>
<rect x="120.5" y="480.5" width="59" height="59" stroke="white"/>
<rect x="120.5" y="420.5" width="59" height="59" stroke="white"/>
<rect x="120.5" y="360.5" width="59" height="59" stroke="white"/>
<rect x="120.5" y="300.5" width="59" height="59" stroke="white"/>
<rect x="120.5" y="240.5" width="59" height="59" stroke="white"/>
<rect x="120.5" y="180.5" width="59" height="59" stroke="white"/>
<rect x="120.5" y="120.5" width="59" height="59" stroke="white"/>
<rect x="120.5" y="60.5" width="59" height="59" stroke="white"/>
<rect x="120.5" y="0.5" width="59" height="59" stroke="white"/>
<rect x="180.5" y="1020.5" width="59" height="59" stroke="white"/>
<rect x="180.5" y="960.5" width="59" height="59" stroke="white"/>
<rect x="180.5" y="900.5" width="59" height="59" stroke="white"/>
<rect x="180.5" y="840.5" width="59" height="59" stroke="white"/>
<rect x="180.5" y="780.5" width="59" height="59" stroke="white"/>
<rect x="180.5" y="720.5" width="59" height="59" stroke="white"/>
<rect x="180.5" y="660.5" width="59" height="59" stroke="white"/>
<rect x="180.5" y="600.5" width="59" height="59" stroke="white"/>
<rect x="180.5" y="540.5" width="59" height="59" stroke="white"/>
<rect x="180.5" y="480.5" width="59" height="59" stroke="white"/>
<rect x="180.5" y="420.5" width="59" height="59" stroke="white"/>
<rect x="180.5" y="360.5" width="59" height="59" stroke="white"/>
<rect x="180.5" y="300.5" width="59" height="59" stroke="white"/>
<rect x="180.5" y="240.5" width="59" height="59" stroke="white"/>
<rect x="180.5" y="180.5" width="59" height="59" stroke="white"/>
<rect x="180.5" y="120.5" width="59" height="59" fill="white" stroke="white"/>
<rect x="180.5" y="60.5" width="59" height="59" fill="white" stroke="white"/>
<rect x="180.5" y="0.5" width="59" height="59" stroke="white"/>
<rect x="240.5" y="1020.5" width="59" height="59" stroke="white"/>
<rect x="240.5" y="960.5" width="59" height="59" stroke="white"/>
<rect x="240.5" y="900.5" width="59" height="59" stroke="white"/>
<rect x="240.5" y="840.5" width="59" height="59" stroke="white"/>
<rect x="240.5" y="780.5" width="59" height="59" stroke="white"/>
<rect x="240.5" y="720.5" width="59" height="59" stroke="white"/>
<rect x="240.5" y="660.5" width="59" height="59" stroke="white"/>
<rect x="240.5" y="600.5" width="59" height="59" stroke="white"/>
<rect x="240.5" y="540.5" width="59" height="59" stroke="white"/>
<rect x="240.5" y="480.5" width="59" height="59" stroke="white"/>
<rect x="240.5" y="420.5" width="59" height="59" stroke="white"/>
<rect x="240.5" y="360.5" width="59" height="59" stroke="white"/>
<rect x="240.5" y="300.5" width="59" height="59" stroke="white"/>
<rect x="240.5" y="240.5" width="59" height="59" stroke="white"/>
<rect x="240.5" y="180.5" width="59" height="59" stroke="white"/>
<rect x="240.5" y="120.5" width="59" height="59" stroke="white"/>
<rect x="240.5" y="60.5" width="59" height="59" stroke="white"/>
<rect x="240.5" y="0.5" width="59" height="59" stroke="white"/>
<rect x="300.5" y="1020.5" width="59" height="59" stroke="white"/>
<rect x="300.5" y="960.5" width="59" height="59" stroke="white"/>
<rect x="300.5" y="900.5" width="59" height="59" stroke="white"/>
<rect x="300.5" y="840.5" width="59" height="59" stroke="white"/>
<rect x="300.5" y="780.5" width="59" height="59" stroke="white"/>
<rect x="300.5" y="720.5" width="59" height="59" stroke="white"/>
<rect x="300.5" y="660.5" width="59" height="59" stroke="white"/>
<rect x="300.5" y="600.5" width="59" height="59" stroke="white"/>
<rect x="300.5" y="540.5" width="59" height="59" stroke="white"/>
<rect x="300.5" y="480.5" width="59" height="59" stroke="white"/>
<rect x="300.5" y="420.5" width="59" height="59" stroke="white"/>
<rect x="300.5" y="360.5" width="59" height="59" stroke="white"/>
<rect x="300.5" y="300.5" width="59" height="59" stroke="white"/>
<rect x="300.5" y="240.5" width="59" height="59" stroke="white"/>
<rect x="300.5" y="180.5" width="59" height="59" stroke="white"/>
<rect x="300.5" y="120.5" width="59" height="59" stroke="white"/>
<rect x="300.5" y="60.5" width="59" height="59" stroke="white"/>
<rect x="300.5" y="0.5" width="59" height="59" stroke="white"/>
<rect x="360.5" y="1020.5" width="59" height="59" fill="white" stroke="white"/>
<rect x="360.5" y="960.5" width="59" height="59" fill="white" stroke="white"/>
<rect x="360.5" y="900.5" width="59" height="59" fill="white" stroke="white"/>
<rect x="360.5" y="840.5" width="59" height="59" fill="white" stroke="white"/>
<rect x="360.5" y="780.5" width="59" height="59" stroke="white"/>
<rect x="360.5" y="720.5" width="59" height="59" stroke="white"/>
<rect x="360.5" y="660.5" width="59" height="59" stroke="white"/>
<rect x="360.5" y="600.5" width="59" height="59" stroke="white"/>
<rect x="360.5" y="540.5" width="59" height="59" fill="white" stroke="white"/>
<rect x="360.5" y="480.5" width="59" height="59" stroke="white"/>
<rect x="360.5" y="420.5" width="59" height="59" stroke="white"/>
<rect x="360.5" y="360.5" width="59" height="59" stroke="white"/>
<rect x="360.5" y="300.5" width="59" height="59" stroke="white"/>
<rect x="360.5" y="240.5" width="59" height="59" stroke="white"/>
<rect x="360.5" y="180.5" width="59" height="59" stroke="white"/>
<rect x="360.5" y="120.5" width="59" height="59" stroke="white"/>
<rect x="360.5" y="60.5" width="59" height="59" stroke="white"/>
<rect x="360.5" y="0.5" width="59" height="59" stroke="white"/>
<rect x="420.5" y="1020.5" width="59" height="59" stroke="white"/>
<rect x="420.5" y="960.5" width="59" height="59" stroke="white"/>
<rect x="420.5" y="900.5" width="59" height="59" fill="white" stroke="white"/>
<rect x="420.5" y="840.5" width="59" height="59" stroke="white"/>
<rect x="420.5" y="780.5" width="59" height="59" stroke="white"/>
<rect x="420.5" y="720.5" width="59" height="59" stroke="white"/>
<rect x="420.5" y="660.5" width="59" height="59" stroke="white"/>
<rect x="420.5" y="600.5" width="59" height="59" fill="white" stroke="white"/>
<rect x="420.5" y="540.5" width="59" height="59" stroke="white"/>
<rect x="420.5" y="480.5" width="59" height="59" fill="white" stroke="white"/>
<rect x="420.5" y="420.5" width="59" height="59" stroke="white"/>
<rect x="420.5" y="360.5" width="59" height="59" stroke="white"/>
<rect x="420.5" y="300.5" width="59" height="59" stroke="white"/>
<rect x="420.5" y="240.5" width="59" height="59" stroke="white"/>
<rect x="420.5" y="180.5" width="59" height="59" stroke="white"/>
<rect x="420.5" y="120.5" width="59" height="59" stroke="white"/>
<rect x="420.5" y="60.5" width="59" height="59" stroke="white"/>
<rect x="420.5" y="0.5" width="59" height="59" stroke="white"/>
<rect x="480.5" y="1020.5" width="59" height="59" stroke="white"/>
<rect x="480.5" y="960.5" width="59" height="59" stroke="white"/>
<rect x="480.5" y="900.5" width="59" height="59" stroke="white"/>
<rect x="480.5" y="840.5" width="59" height="59" stroke="white"/>
<rect x="480.5" y="780.5" width="59" height="59" stroke="white"/>
<rect x="480.5" y="720.5" width="59" height="59" stroke="white"/>
<rect x="480.5" y="660.5" width="59" height="59" stroke="white"/>
<rect x="480.5" y="600.5" width="59" height="59" stroke="white"/>
<rect x="480.5" y="540.5" width="59" height="59" stroke="white"/>
<rect x="480.5" y="480.5" width="59" height="59" stroke="white"/>
<rect x="480.5" y="420.5" width="59" height="59" stroke="white"/>
<rect x="480.5" y="360.5" width="59" height="59" stroke="white"/>
<rect x="480.5" y="300.5" width="59" height="59" stroke="white"/>
<rect x="480.5" y="240.5" width="59" height="59" stroke="white"/>
<rect x="480.5" y="180.5" width="59" height="59" stroke="white"/>
<rect x="480.5" y="120.5" width="59" height="59" stroke="white"/>
<rect x="480.5" y="60.5" width="59" height="59" stroke="white"/>
<rect x="480.5" y="0.5" width="59" height="59" stroke="white"/>
<rect x="540.5" y="1020.5" width="59" height="59" stroke="white"/>
<rect x="540.5" y="960.5" width="59" height="59" stroke="white"/>
<rect x="540.5" y="900.5" width="59" height="59" stroke="white"/>
<rect x="540.5" y="840.5" width="59" height="59" stroke="white"/>
<rect x="540.5" y="780.5" width="59" height="59" stroke="white"/>
<rect x="540.5" y="720.5" width="59" height="59" stroke="white"/>
<rect x="540.5" y="660.5" width="59" height="59" fill="white" stroke="white"/>
<rect x="540.5" y="600.5" width="59" height="59" stroke="white"/>
<rect x="540.5" y="540.5" width="59" height="59" stroke="white"/>
<rect x="540.5" y="480.5" width="59" height="59" fill="white" stroke="white"/>
<rect x="540.5" y="420.5" width="59" height="59" stroke="white"/>
<rect x="540.5" y="360.5" width="59" height="59" stroke="white"/>
<rect x="540.5" y="300.5" width="59" height="59" fill="white" stroke="white"/>
<rect x="540.5" y="240.5" width="59" height="59" fill="white" stroke="white"/>
<rect x="540.5" y="180.5" width="59" height="59" stroke="white"/>
<rect x="540.5" y="120.5" width="59" height="59" stroke="white"/>
<rect x="540.5" y="60.5" width="59" height="59" stroke="white"/>
<rect x="540.5" y="0.5" width="59" height="59" stroke="white"/>
<rect x="600.5" y="1020.5" width="59" height="59" stroke="white"/>
<rect x="600.5" y="960.5" width="59" height="59" stroke="white"/>
<rect x="600.5" y="900.5" width="59" height="59" stroke="white"/>
<rect x="600.5" y="840.5" width="59" height="59" stroke="white"/>
<rect x="600.5" y="780.5" width="59" height="59" stroke="white"/>
<rect x="600.5" y="720.5" width="59" height="59" stroke="white"/>
<rect x="600.5" y="660.5" width="59" height="59" stroke="white"/>
<rect x="600.5" y="600.5" width="59" height="59" stroke="white"/>
<rect x="600.5" y="540.5" width="59" height="59" stroke="white"/>
<rect x="600.5" y="480.5" width="59" height="59" stroke="white"/>
<rect x="600.5" y="420.5" width="59" height="59" stroke="white"/>
<rect x="600.5" y="360.5" width="59" height="59" stroke="white"/>
<rect x="600.5" y="300.5" width="59" height="59" fill="white" stroke="white"/>
<rect x="600.5" y="240.5" width="59" height="59" stroke="white"/>
<rect x="600.5" y="180.5" width="59" height="59" stroke="white"/>
<rect x="600.5" y="120.5" width="59" height="59" stroke="white"/>
<rect x="600.5" y="60.5" width="59" height="59" stroke="white"/>
<rect x="600.5" y="0.5" width="59" height="59" stroke="white"/>
<rect x="660.5" y="1020.5" width="59" height="59" stroke="white"/>
<rect x="660.5" y="960.5" width="59" height="59" stroke="white"/>
<rect x="660.5" y="900.5" width="59" height="59" stroke="white"/>
<rect x="660.5" y="840.5" width="59" height="59" stroke="white"/>
<rect x="660.5" y="780.5" width="59" height="59" stroke="white"/>
<rect x="660.5" y="720.5" width="59" height="59" stroke="white"/>
<rect x="660.5" y="660.5" width="59" height="59" stroke="white"/>
<rect x="660.5" y="600.5" width="59" height="59" stroke="white"/>
<rect x="660.5" y="540.5" width="59" height="59" stroke="white"/>
<rect x="660.5" y="480.5" width="59" height="59" stroke="white"/>
<rect x="660.5" y="420.5" width="59" height="59" stroke="white"/>
<rect x="660.5" y="360.5" width="59" height="59" stroke="white"/>
<rect x="660.5" y="300.5" width="59" height="59" stroke="white"/>
<rect x="660.5" y="240.5" width="59" height="59" stroke="white"/>
<rect x="660.5" y="180.5" width="59" height="59" stroke="white"/>
<rect x="660.5" y="120.5" width="59" height="59" stroke="white"/>
<rect x="660.5" y="60.5" width="59" height="59" stroke="white"/>
<rect x="660.5" y="0.5" width="59" height="59" stroke="white"/>
<rect x="720.5" y="1020.5" width="59" height="59" stroke="white"/>
<rect x="720.5" y="960.5" width="59" height="59" stroke="white"/>
<rect x="720.5" y="900.5" width="59" height="59" stroke="white"/>
<rect x="720.5" y="840.5" width="59" height="59" stroke="white"/>
<rect x="720.5" y="780.5" width="59" height="59" stroke="white"/>
<rect x="720.5" y="720.5" width="59" height="59" stroke="white"/>
<rect x="720.5" y="660.5" width="59" height="59" stroke="white"/>
<rect x="720.5" y="600.5" width="59" height="59" stroke="white"/>
<rect x="720.5" y="540.5" width="59" height="59" stroke="white"/>
<rect x="720.5" y="480.5" width="59" height="59" stroke="white"/>
<rect x="720.5" y="420.5" width="59" height="59" stroke="white"/>
<rect x="720.5" y="360.5" width="59" height="59" stroke="white"/>
<rect x="720.5" y="300.5" width="59" height="59" stroke="white"/>
<rect x="720.5" y="240.5" width="59" height="59" stroke="white"/>
<rect x="720.5" y="180.5" width="59" height="59" stroke="white"/>
<rect x="720.5" y="120.5" width="59" height="59" stroke="white"/>
<rect x="720.5" y="60.5" width="59" height="59" stroke="white"/>
<rect x="720.5" y="0.5" width="59" height="59" fill="white" stroke="white"/>
<rect x="780.5" y="1020.5" width="59" height="59" stroke="white"/>
<rect x="780.5" y="960.5" width="59" height="59" stroke="white"/>
<rect x="780.5" y="900.5" width="59" height="59" fill="white" stroke="white"/>
<rect x="780.5" y="840.5" width="59" height="59" stroke="white"/>
<rect x="780.5" y="780.5" width="59" height="59" stroke="white"/>
<rect x="780.5" y="720.5" width="59" height="59" stroke="white"/>
<rect x="780.5" y="660.5" width="59" height="59" stroke="white"/>
<rect x="780.5" y="600.5" width="59" height="59" stroke="white"/>
<rect x="780.5" y="540.5" width="59" height="59" stroke="white"/>
<rect x="780.5" y="480.5" width="59" height="59" stroke="white"/>
<rect x="780.5" y="420.5" width="59" height="59" stroke="white"/>
<rect x="780.5" y="360.5" width="59" height="59" stroke="white"/>
<rect x="780.5" y="300.5" width="59" height="59" stroke="white"/>
<rect x="780.5" y="240.5" width="59" height="59" stroke="white"/>
<rect x="780.5" y="180.5" width="59" height="59" stroke="white"/>
<rect x="780.5" y="120.5" width="59" height="59" stroke="white"/>
<rect x="780.5" y="60.5" width="59" height="59" stroke="white"/>
<rect x="780.5" y="0.5" width="59" height="59" stroke="white"/>
<rect x="840.5" y="1020.5" width="59" height="59" stroke="white"/>
<rect x="840.5" y="960.5" width="59" height="59" stroke="white"/>
<rect x="840.5" y="900.5" width="59" height="59" fill="white" stroke="white"/>
<rect x="840.5" y="840.5" width="59" height="59" stroke="white"/>
<rect x="840.5" y="780.5" width="59" height="59" stroke="white"/>
<rect x="840.5" y="720.5" width="59" height="59" stroke="white"/>
<rect x="840.5" y="660.5" width="59" height="59" stroke="white"/>
<rect x="840.5" y="600.5" width="59" height="59" stroke="white"/>
<rect x="840.5" y="540.5" width="59" height="59" fill="white" stroke="white"/>
<rect x="840.5" y="480.5" width="59" height="59" stroke="white"/>
<rect x="840.5" y="420.5" width="59" height="59" stroke="white"/>
<rect x="840.5" y="360.5" width="59" height="59" stroke="white"/>
<rect x="840.5" y="300.5" width="59" height="59" stroke="white"/>
<rect x="840.5" y="240.5" width="59" height="59" stroke="white"/>
<rect x="840.5" y="180.5" width="59" height="59" stroke="white"/>
<rect x="840.5" y="120.5" width="59" height="59" stroke="white"/>
<rect x="840.5" y="60.5" width="59" height="59" stroke="white"/>
<rect x="840.5" y="0.5" width="59" height="59" stroke="white"/>
<rect x="900.5" y="1020.5" width="59" height="59" stroke="white"/>
<rect x="900.5" y="960.5" width="59" height="59" stroke="white"/>
<rect x="900.5" y="900.5" width="59" height="59" fill="white" stroke="white"/>
<rect x="900.5" y="840.5" width="59" height="59" fill="white" stroke="white"/>
<rect x="900.5" y="780.5" width="59" height="59" stroke="white"/>
<rect x="900.5" y="720.5" width="59" height="59" stroke="white"/>
<rect x="900.5" y="660.5" width="59" height="59" stroke="white"/>
<rect x="900.5" y="600.5" width="59" height="59" fill="white" stroke="white"/>
<rect x="900.5" y="540.5" width="59" height="59" fill="white" stroke="white"/>
<rect x="900.5" y="480.5" width="59" height="59" fill="white" stroke="white"/>
<rect x="900.5" y="420.5" width="59" height="59" stroke="white"/>
<rect x="900.5" y="360.5" width="59" height="59" stroke="white"/>
<rect x="900.5" y="300.5" width="59" height="59" stroke="white"/>
<rect x="900.5" y="240.5" width="59" height="59" stroke="white"/>
<rect x="900.5" y="180.5" width="59" height="59" stroke="white"/>
<rect x="900.5" y="120.5" width="59" height="59" stroke="white"/>
<rect x="900.5" y="60.5" width="59" height="59" fill="white" stroke="white"/>
<rect x="900.5" y="0.5" width="59" height="59" stroke="white"/>
<rect x="960.5" y="1020.5" width="59" height="59" stroke="white"/>
<rect x="960.5" y="960.5" width="59" height="59" stroke="white"/>
<rect x="960.5" y="900.5" width="59" height="59" fill="white" stroke="white"/>
<rect x="960.5" y="840.5" width="59" height="59" stroke="white"/>
<rect x="960.5" y="780.5" width="59" height="59" stroke="white"/>
<rect x="960.5" y="720.5" width="59" height="59" stroke="white"/>
<rect x="960.5" y="660.5" width="59" height="59" stroke="white"/>
<rect x="960.5" y="600.5" width="59" height="59" stroke="white"/>
<rect x="960.5" y="540.5" width="59" height="59" fill="white" stroke="white"/>
<rect x="960.5" y="480.5" width="59" height="59" stroke="white"/>
<rect x="960.5" y="420.5" width="59" height="59" stroke="white"/>
<rect x="960.5" y="360.5" width="59" height="59" stroke="white"/>
<rect x="960.5" y="300.5" width="59" height="59" stroke="white"/>
<rect x="960.5" y="240.5" width="59" height="59" stroke="white"/>
<rect x="960.5" y="180.5" width="59" height="59" stroke="white"/>
<rect x="960.5" y="120.5" width="59" height="59" stroke="white"/>
<rect x="960.5" y="60.5" width="59" height="59" fill="white" stroke="white"/>
<rect x="960.5" y="0.5" width="59" height="59" stroke="white"/>
<rect x="1020.5" y="1020.5" width="59" height="59" stroke="white"/>
<rect x="1020.5" y="960.5" width="59" height="59" stroke="white"/>
<rect x="1020.5" y="900.5" width="59" height="59" fill="white" stroke="white"/>
<rect x="1020.5" y="840.5" width="59" height="59" stroke="white"/>
<rect x="1020.5" y="780.5" width="59" height="59" stroke="white"/>
<rect x="1020.5" y="720.5" width="59" height="59" stroke="white"/>
<rect x="1020.5" y="660.5" width="59" height="59" stroke="white"/>
<rect x="1020.5" y="600.5" width="59" height="59" stroke="white"/>
<rect x="1020.5" y="540.5" width="59" height="59" stroke="white"/>
<rect x="1020.5" y="480.5" width="59" height="59" stroke="white"/>
<rect x="1020.5" y="420.5" width="59" height="59" stroke="white"/>
<rect x="1020.5" y="360.5" width="59" height="59" stroke="white"/>
<rect x="1020.5" y="300.5" width="59" height="59" stroke="white"/>
<rect x="1020.5" y="240.5" width="59" height="59" stroke="white"/>
<rect x="1020.5" y="180.5" width="59" height="59" fill="white" stroke="white"/>
<rect x="1020.5" y="120.5" width="59" height="59" stroke="white"/>
<rect x="1020.5" y="60.5" width="59" height="59" stroke="white"/>
<rect x="1020.5" y="0.5" width="59" height="59" stroke="white"/>
<rect x="1080.5" y="1020.5" width="59" height="59" fill="white" stroke="white"/>
<rect x="1080.5" y="960.5" width="59" height="59" stroke="white"/>
<rect x="1080.5" y="900.5" width="59" height="59" fill="white" stroke="white"/>
<rect x="1080.5" y="840.5" width="59" height="59" stroke="white"/>
<rect x="1080.5" y="780.5" width="59" height="59" stroke="white"/>
<rect x="1080.5" y="720.5" width="59" height="59" stroke="white"/>
<rect x="1080.5" y="660.5" width="59" height="59" stroke="white"/>
<rect x="1080.5" y="600.5" width="59" height="59" stroke="white"/>
<rect x="1080.5" y="540.5" width="59" height="59" stroke="white"/>
<rect x="1080.5" y="480.5" width="59" height="59" stroke="white"/>
<rect x="1080.5" y="420.5" width="59" height="59" stroke="white"/>
<rect x="1080.5" y="360.5" width="59" height="59" stroke="white"/>
<rect x="1080.5" y="300.5" width="59" height="59" stroke="white"/>
<rect x="1080.5" y="240.5" width="59" height="59" stroke="white"/>
<rect x="1080.5" y="180.5" width="59" height="59" stroke="white"/>
<rect x="1080.5" y="120.5" width="59" height="59" stroke="white"/>
<rect x="1080.5" y="60.5" width="59" height="59" stroke="white"/>
<rect x="1080.5" y="0.5" width="59" height="59" stroke="white"/>
<rect x="1140.5" y="1020.5" width="59" height="59" stroke="white"/>
<rect x="1140.5" y="960.5" width="59" height="59" stroke="white"/>
<rect x="1140.5" y="900.5" width="59" height="59" stroke="white"/>
<rect x="1140.5" y="840.5" width="59" height="59" stroke="white"/>
<rect x="1140.5" y="780.5" width="59" height="59" stroke="white"/>
<rect x="1140.5" y="720.5" width="59" height="59" stroke="white"/>
<rect x="1140.5" y="660.5" width="59" height="59" stroke="white"/>
<rect x="1140.5" y="600.5" width="59" height="59" stroke="white"/>
<rect x="1140.5" y="540.5" width="59" height="59" stroke="white"/>
<rect x="1140.5" y="480.5" width="59" height="59" stroke="white"/>
<rect x="1140.5" y="420.5" width="59" height="59" stroke="white"/>
<rect x="1140.5" y="360.5" width="59" height="59" stroke="white"/>
<rect x="1140.5" y="300.5" width="59" height="59" stroke="white"/>
<rect x="1140.5" y="240.5" width="59" height="59" stroke="white"/>
<rect x="1140.5" y="180.5" width="59" height="59" stroke="white"/>
<rect x="1140.5" y="120.5" width="59" height="59" stroke="white"/>
<rect x="1140.5" y="60.5" width="59" height="59" stroke="white"/>
<rect x="1140.5" y="0.5" width="59" height="59" stroke="white"/>
<rect x="1200.5" y="1020.5" width="59" height="59" stroke="white"/>
<rect x="1200.5" y="960.5" width="59" height="59" stroke="white"/>
<rect x="1200.5" y="900.5" width="59" height="59" stroke="white"/>
<rect x="1200.5" y="840.5" width="59" height="59" stroke="white"/>
<rect x="1200.5" y="780.5" width="59" height="59" stroke="white"/>
<rect x="1200.5" y="720.5" width="59" height="59" stroke="white"/>
<rect x="1200.5" y="660.5" width="59" height="59" stroke="white"/>
<rect x="1200.5" y="600.5" width="59" height="59" stroke="white"/>
<rect x="1200.5" y="540.5" width="59" height="59" stroke="white"/>
<rect x="1200.5" y="480.5" width="59" height="59" stroke="white"/>
<rect x="1200.5" y="420.5" width="59" height="59" stroke="white"/>
<rect x="1200.5" y="360.5" width="59" height="59" stroke="white"/>
<rect x="1200.5" y="300.5" width="59" height="59" stroke="white"/>
<rect x="1200.5" y="240.5" width="59" height="59" stroke="white"/>
<rect x="1200.5" y="180.5" width="59" height="59" stroke="white"/>
<rect x="1200.5" y="120.5" width="59" height="59" stroke="white"/>
<rect x="1200.5" y="60.5" width="59" height="59" stroke="white"/>
<rect x="1200.5" y="0.5" width="59" height="59" stroke="white"/>
<rect x="1260.5" y="1020.5" width="59" height="59" stroke="white"/>
<rect x="1260.5" y="960.5" width="59" height="59" stroke="white"/>
<rect x="1260.5" y="900.5" width="59" height="59" stroke="white"/>
<rect x="1260.5" y="840.5" width="59" height="59" stroke="white"/>
<rect x="1260.5" y="780.5" width="59" height="59" stroke="white"/>
<rect x="1260.5" y="720.5" width="59" height="59" stroke="white"/>
<rect x="1260.5" y="660.5" width="59" height="59" stroke="white"/>
<rect x="1260.5" y="600.5" width="59" height="59" stroke="white"/>
<rect x="1260.5" y="540.5" width="59" height="59" stroke="white"/>
<rect x="1260.5" y="480.5" width="59" height="59" fill="white" stroke="white"/>
<rect x="1260.5" y="420.5" width="59" height="59" fill="white" stroke="white"/>
<rect x="1260.5" y="360.5" width="59" height="59" fill="white" stroke="white"/>
<rect x="1260.5" y="300.5" width="59" height="59" fill="white" stroke="white"/>
<rect x="1260.5" y="240.5" width="59" height="59" stroke="white"/>
<rect x="1260.5" y="180.5" width="59" height="59" stroke="white"/>
<rect x="1260.5" y="120.5" width="59" height="59" stroke="white"/>
<rect x="1260.5" y="60.5" width="59" height="59" stroke="white"/>
<rect x="1260.5" y="0.5" width="59" height="59" stroke="white"/>
<rect x="1320.5" y="1020.5" width="59" height="59" stroke="white"/>
<rect x="1320.5" y="960.5" width="59" height="59" stroke="white"/>
<rect x="1320.5" y="900.5" width="59" height="59" stroke="white"/>
<rect x="1320.5" y="840.5" width="59" height="59" stroke="white"/>
<rect x="1320.5" y="780.5" width="59" height="59" stroke="white"/>
<rect x="1320.5" y="720.5" width="59" height="59" stroke="white"/>
<rect x="1320.5" y="660.5" width="59" height="59" stroke="white"/>
<rect x="1320.5" y="600.5" width="59" height="59" fill="white" stroke="white"/>
<rect x="1320.5" y="540.5" width="59" height="59" stroke="white"/>
<rect x="1320.5" y="480.5" width="59" height="59" stroke="white"/>
<rect x="1320.5" y="420.5" width="59" height="59" stroke="white"/>
<rect x="1320.5" y="360.5" width="59" height="59" stroke="white"/>
<rect x="1320.5" y="300.5" width="59" height="59" fill="white" stroke="white"/>
<rect x="1320.5" y="240.5" width="59" height="59" stroke="white"/>
<rect x="1320.5" y="180.5" width="59" height="59" stroke="white"/>
<rect x="1320.5" y="120.5" width="59" height="59" stroke="white"/>
<rect x="1320.5" y="60.5" width="59" height="59" stroke="white"/>
<rect x="1320.5" y="0.5" width="59" height="59" stroke="white"/>
<rect x="1380.5" y="1020.5" width="59" height="59" stroke="white"/>
<rect x="1380.5" y="960.5" width="59" height="59" stroke="white"/>
<rect x="1380.5" y="900.5" width="59" height="59" stroke="white"/>
<rect x="1380.5" y="840.5" width="59" height="59" stroke="white"/>
<rect x="1380.5" y="780.5" width="59" height="59" fill="white" stroke="white"/>
<rect x="1380.5" y="720.5" width="59" height="59" stroke="white"/>
<rect x="1380.5" y="660.5" width="59" height="59" stroke="white"/>
<rect x="1380.5" y="600.5" width="59" height="59" fill="white" stroke="white"/>
<rect x="1380.5" y="540.5" width="59" height="59" fill="white" stroke="white"/>
<rect x="1380.5" y="480.5" width="59" height="59" stroke="white"/>
<rect x="1380.5" y="420.5" width="59" height="59" fill="white" stroke="white"/>
<rect x="1380.5" y="360.5" width="59" height="59" stroke="white"/>
<rect x="1380.5" y="300.5" width="59" height="59" fill="white" stroke="white"/>
<rect x="1380.5" y="240.5" width="59" height="59" stroke="white"/>
<rect x="1380.5" y="180.5" width="59" height="59" stroke="white"/>
<rect x="1380.5" y="120.5" width="59" height="59" stroke="white"/>
<rect x="1380.5" y="60.5" width="59" height="59" stroke="white"/>
<rect x="1380.5" y="0.5" width="59" height="59" stroke="white"/>
<rect x="1440.5" y="1020.5" width="59" height="59" stroke="white"/>
<rect x="1440.5" y="960.5" width="59" height="59" stroke="white"/>
<rect x="1440.5" y="900.5" width="59" height="59" stroke="white"/>
<rect x="1440.5" y="840.5" width="59" height="59" stroke="white"/>
<rect x="1440.5" y="780.5" width="59" height="59" fill="white" stroke="white"/>
<rect x="1440.5" y="720.5" width="59" height="59" stroke="white"/>
<rect x="1440.5" y="660.5" width="59" height="59" stroke="white"/>
<rect x="1440.5" y="600.5" width="59" height="59" stroke="white"/>
<rect x="1440.5" y="540.5" width="59" height="59" stroke="white"/>
<rect x="1440.5" y="480.5" width="59" height="59" stroke="white"/>
<rect x="1440.5" y="420.5" width="59" height="59" stroke="white"/>
<rect x="1440.5" y="360.5" width="59" height="59" stroke="white"/>
<rect x="1440.5" y="300.5" width="59" height="59" stroke="white"/>
<rect x="1440.5" y="240.5" width="59" height="59" stroke="white"/>
<rect x="1440.5" y="180.5" width="59" height="59" stroke="white"/>
<rect x="1440.5" y="120.5" width="59" height="59" stroke="white"/>
<rect x="1440.5" y="60.5" width="59" height="59" fill="white" stroke="white"/>
<rect x="1440.5" y="0.5" width="59" height="59" stroke="white"/>
<rect x="1500.5" y="1020.5" width="59" height="59" fill="white" stroke="white"/>
<rect x="1500.5" y="960.5" width="59" height="59" fill="white" stroke="white"/>
<rect x="1500.5" y="900.5" width="59" height="59" stroke="white"/>
<rect x="1500.5" y="840.5" width="59" height="59" stroke="white"/>
<rect x="1500.5" y="780.5" width="59" height="59" fill="white" stroke="white"/>
<rect x="1500.5" y="720.5" width="59" height="59" stroke="white"/>
<rect x="1500.5" y="660.5" width="59" height="59" stroke="white"/>
<rect x="1500.5" y="600.5" width="59" height="59" stroke="white"/>
<rect x="1500.5" y="540.5" width="59" height="59" stroke="white"/>
<rect x="1500.5" y="480.5" width="59" height="59" stroke="white"/>
<rect x="1500.5" y="420.5" width="59" height="59" stroke="white"/>
<rect x="1500.5" y="360.5" width="59" height="59" stroke="white"/>
<rect x="1500.5" y="300.5" width="59" height="59" stroke="white"/>
<rect x="1500.5" y="240.5" width="59" height="59" stroke="white"/>
<rect x="1500.5" y="180.5" width="59" height="59" stroke="white"/>
<rect x="1500.5" y="120.5" width="59" height="59" stroke="white"/>
<rect x="1500.5" y="60.5" width="59" height="59" stroke="white"/>
<rect x="1500.5" y="0.5" width="59" height="59" stroke="white"/>
<rect x="1560.5" y="1020.5" width="59" height="59" stroke="white"/>
<rect x="1560.5" y="960.5" width="59" height="59" stroke="white"/>
<rect x="1560.5" y="900.5" width="59" height="59" stroke="white"/>
<rect x="1560.5" y="840.5" width="59" height="59" stroke="white"/>
<rect x="1560.5" y="780.5" width="59" height="59" stroke="white"/>
<rect x="1560.5" y="720.5" width="59" height="59" stroke="white"/>
<rect x="1560.5" y="660.5" width="59" height="59" stroke="white"/>
<rect x="1560.5" y="600.5" width="59" height="59" fill="white" stroke="white"/>
<rect x="1560.5" y="540.5" width="59" height="59" stroke="white"/>
<rect x="1560.5" y="480.5" width="59" height="59" stroke="white"/>
<rect x="1560.5" y="420.5" width="59" height="59" stroke="white"/>
<rect x="1560.5" y="360.5" width="59" height="59" stroke="white"/>
<rect x="1560.5" y="300.5" width="59" height="59" stroke="white"/>
<rect x="1560.5" y="240.5" width="59" height="59" stroke="white"/>
<rect x="1560.5" y="180.5" width="59" height="59" stroke="white"/>
<rect x="1560.5" y="120.5" width="59" height="59" stroke="white"/>
<rect x="1560.5" y="60.5" width="59" height="59" stroke="white"/>
<rect x="1560.5" y="0.5" width="59" height="59" stroke="white"/>
<rect x="1620.5" y="1020.5" width="59" height="59" stroke="white"/>
<rect x="1620.5" y="960.5" width="59" height="59" stroke="white"/>
<rect x="1620.5" y="900.5" width="59" height="59" stroke="white"/>
<rect x="1620.5" y="840.5" width="59" height="59" stroke="white"/>
<rect x="1620.5" y="780.5" width="59" height="59" stroke="white"/>
<rect x="1620.5" y="720.5" width="59" height="59" stroke="white"/>
<rect x="1620.5" y="660.5" width="59" height="59" stroke="white"/>
<rect x="1620.5" y="600.5" width="59" height="59" stroke="white"/>
<rect x="1620.5" y="540.5" width="59" height="59" stroke="white"/>
<rect x="1620.5" y="480.5" width="59" height="59" stroke="white"/>
<rect x="1620.5" y="420.5" width="59" height="59" stroke="white"/>
<rect x="1620.5" y="360.5" width="59" height="59" stroke="white"/>
<rect x="1620.5" y="300.5" width="59" height="59" stroke="white"/>
<rect x="1620.5" y="240.5" width="59" height="59" stroke="white"/>
<rect x="1620.5" y="180.5" width="59" height="59" stroke="white"/>
<rect x="1620.5" y="120.5" width="59" height="59" stroke="white"/>
<rect x="1620.5" y="60.5" width="59" height="59" stroke="white"/>
<rect x="1620.5" y="0.5" width="59" height="59" stroke="white"/>
<rect x="1680.5" y="1020.5" width="59" height="59" stroke="white"/>
<rect x="1680.5" y="960.5" width="59" height="59" stroke="white"/>
<rect x="1680.5" y="900.5" width="59" height="59" stroke="white"/>
<rect x="1680.5" y="840.5" width="59" height="59" stroke="white"/>
<rect x="1680.5" y="780.5" width="59" height="59" stroke="white"/>
<rect x="1680.5" y="720.5" width="59" height="59" stroke="white"/>
<rect x="1680.5" y="660.5" width="59" height="59" stroke="white"/>
<rect x="1680.5" y="600.5" width="59" height="59" stroke="white"/>
<rect x="1680.5" y="540.5" width="59" height="59" stroke="white"/>
<rect x="1680.5" y="480.5" width="59" height="59" stroke="white"/>
<rect x="1680.5" y="420.5" width="59" height="59" stroke="white"/>
<rect x="1680.5" y="360.5" width="59" height="59" stroke="white"/>
<rect x="1680.5" y="300.5" width="59" height="59" stroke="white"/>
<rect x="1680.5" y="240.5" width="59" height="59" stroke="white"/>
<rect x="1680.5" y="180.5" width="59" height="59" fill="white" stroke="white"/>
<rect x="1680.5" y="120.5" width="59" height="59" stroke="white"/>
<rect x="1680.5" y="60.5" width="59" height="59" stroke="white"/>
<rect x="1680.5" y="0.5" width="59" height="59" stroke="white"/>
<rect x="1740.5" y="1020.5" width="59" height="59" stroke="white"/>
<rect x="1740.5" y="960.5" width="59" height="59" fill="white" stroke="white"/>
<rect x="1740.5" y="900.5" width="59" height="59" stroke="white"/>
<rect x="1740.5" y="840.5" width="59" height="59" stroke="white"/>
<rect x="1740.5" y="780.5" width="59" height="59" stroke="white"/>
<rect x="1740.5" y="720.5" width="59" height="59" fill="white" stroke="white"/>
<rect x="1740.5" y="660.5" width="59" height="59" stroke="white"/>
<rect x="1740.5" y="600.5" width="59" height="59" stroke="white"/>
<rect x="1740.5" y="540.5" width="59" height="59" stroke="white"/>
<rect x="1740.5" y="480.5" width="59" height="59" stroke="white"/>
<rect x="1740.5" y="420.5" width="59" height="59" fill="white" stroke="white"/>
<rect x="1740.5" y="360.5" width="59" height="59" fill="white" stroke="white"/>
<rect x="1740.5" y="300.5" width="59" height="59" stroke="white"/>
<rect x="1740.5" y="240.5" width="59" height="59" stroke="white"/>
<rect x="1740.5" y="180.5" width="59" height="59" stroke="white"/>
<rect x="1740.5" y="120.5" width="59" height="59" stroke="white"/>
<rect x="1740.5" y="60.5" width="59" height="59" stroke="white"/>
<rect x="1740.5" y="0.5" width="59" height="59" stroke="white"/>
<rect x="1800.5" y="1020.5" width="59" height="59" stroke="white"/>
<rect x="1800.5" y="960.5" width="59" height="59" fill="white" stroke="white"/>
<rect x="1800.5" y="900.5" width="59" height="59" fill="white" stroke="white"/>
<rect x="1800.5" y="840.5" width="59" height="59" stroke="white"/>
<rect x="1800.5" y="780.5" width="59" height="59" stroke="white"/>
<rect x="1800.5" y="720.5" width="59" height="59" stroke="white"/>
<rect x="1800.5" y="660.5" width="59" height="59" stroke="white"/>
<rect x="1800.5" y="600.5" width="59" height="59" stroke="white"/>
<rect x="1800.5" y="540.5" width="59" height="59" stroke="white"/>
<rect x="1800.5" y="480.5" width="59" height="59" fill="white" stroke="white"/>
<rect x="1800.5" y="420.5" width="59" height="59" stroke="white"/>
<rect x="1800.5" y="360.5" width="59" height="59" stroke="white"/>
<rect x="1800.5" y="300.5" width="59" height="59" stroke="white"/>
<rect x="1800.5" y="240.5" width="59" height="59" stroke="white"/>
<rect x="1800.5" y="180.5" width="59" height="59" stroke="white"/>
<rect x="1800.5" y="120.5" width="59" height="59" fill="white" stroke="white"/>
<rect x="1800.5" y="60.5" width="59" height="59" fill="white" stroke="white"/>
<rect x="1800.5" y="0.5" width="59" height="59" fill="white" stroke="white"/>
<rect x="1860.5" y="1020.5" width="59" height="59" stroke="white"/>
<rect x="1860.5" y="960.5" width="59" height="59" stroke="white"/>
<rect x="1860.5" y="900.5" width="59" height="59" stroke="white"/>
<rect x="1860.5" y="840.5" width="59" height="59" stroke="white"/>
<rect x="1860.5" y="780.5" width="59" height="59" stroke="white"/>
<rect x="1860.5" y="720.5" width="59" height="59" stroke="white"/>
<rect x="1860.5" y="660.5" width="59" height="59" stroke="white"/>
<rect x="1860.5" y="600.5" width="59" height="59" stroke="white"/>
<rect x="1860.5" y="540.5" width="59" height="59" stroke="white"/>
<rect x="1860.5" y="480.5" width="59" height="59" stroke="white"/>
<rect x="1860.5" y="420.5" width="59" height="59" stroke="white"/>
<rect x="1860.5" y="360.5" width="59" height="59" stroke="white"/>
<rect x="1860.5" y="300.5" width="59" height="59" stroke="white"/>
<rect x="1860.5" y="240.5" width="59" height="59" stroke="white"/>
<rect x="1860.5" y="180.5" width="59" height="59" stroke="white"/>
<rect x="1860.5" y="120.5" width="59" height="59" stroke="white"/>
<rect x="1860.5" y="60.5" width="59" height="59" fill="white" stroke="white"/>
<rect x="1860.5" y="0.5" width="59" height="59" stroke="white"/>
</svg>
