<svg width="1423" height="821" viewBox="0 0 1423 821" fill="none" xmlns="http://www.w3.org/2000/svg">
<path d="M191 819.5H3H1.5L361 223.5L864 593L728 819H538.5L649 636L408 459L191 819.5Z" fill="white"/>
<path d="M1337.5 820L411.5 141L411 140.5L496 1L866.5 273.5L1030 2.5H1218.5L997.5 369.5L1422 681L1337.5 820Z" fill="white"/>
<path d="M191 819.5H3H1.5L361 223.5L864 593L728 819H538.5L649 636L408 459L191 819.5Z" stroke="white"/>
<path d="M1337.5 820L411.5 141L411 140.5L496 1L866.5 273.5L1030 2.5H1218.5L997.5 369.5L1422 681L1337.5 820Z" stroke="white"/>
</svg>