<svg width="2000" height="2000" viewBox="0 0 2000 2000" fill="none" xmlns="http://www.w3.org/2000/svg">
<rect width="2000" height="2000" rx="250" fill="#7C90E9"/>
<path d="M479.5 1408.5H291.5H290L649.5 812.5L1152.5 1182L1016.5 1408H827L937.5 1225L696.5 1048L479.5 1408.5Z" fill="white"/>
<path d="M1626 1409L700 730L699.5 729.5L784.5 590L1155 862.5L1318.5 591.5H1507L1286 958.5L1710.5 1270L1626 1409Z" fill="white"/>
<path d="M479.5 1408.5H291.5H290L649.5 812.5L1152.5 1182L1016.5 1408H827L937.5 1225L696.5 1048L479.5 1408.5Z" stroke="white"/>
<path d="M1626 1409L700 730L699.5 729.5L784.5 590L1155 862.5L1318.5 591.5H1507L1286 958.5L1710.5 1270L1626 1409Z" stroke="white"/>
</svg>
